<mxfile host="app.diagrams.net" agent="Mozilla/5.0 (Macintosh; Intel Mac OS X 10_15_7) AppleWebKit/537.36 (KHTML, like Gecko) Chrome/131.0.0.0 Safari/537.36" version="26.0.5">
  <diagram name="第 1 页" id="MuTb_cm9kqDbKuGd1V46">
    <mxGraphModel dx="1240" dy="701" grid="1" gridSize="10" guides="1" tooltips="1" connect="1" arrows="1" fold="1" page="1" pageScale="1" pageWidth="827" pageHeight="1169" math="0" shadow="0">
      <root>
        <mxCell id="0" />
        <mxCell id="1" parent="0" />
        <mxCell id="dQK-oS-ozdkQvW9abXsG-8" style="edgeStyle=orthogonalEdgeStyle;rounded=0;orthogonalLoop=1;jettySize=auto;html=1;exitX=0.5;exitY=1;exitDx=0;exitDy=0;entryX=0.5;entryY=0;entryDx=0;entryDy=0;" edge="1" parent="1" source="LDq6p9TTaETav7FcXZGg-1" target="dQK-oS-ozdkQvW9abXsG-1">
          <mxGeometry relative="1" as="geometry" />
        </mxCell>
        <mxCell id="LDq6p9TTaETav7FcXZGg-1" value="获取期望skuCode列表" style="ellipse;whiteSpace=wrap;html=1;fillColor=none;" parent="1" vertex="1">
          <mxGeometry x="125" y="70" width="130" height="70" as="geometry" />
        </mxCell>
        <mxCell id="dQK-oS-ozdkQvW9abXsG-9" style="edgeStyle=orthogonalEdgeStyle;rounded=0;orthogonalLoop=1;jettySize=auto;html=1;exitX=0.5;exitY=1;exitDx=0;exitDy=0;entryX=0.5;entryY=0;entryDx=0;entryDy=0;" edge="1" parent="1" source="LDq6p9TTaETav7FcXZGg-3" target="dQK-oS-ozdkQvW9abXsG-4">
          <mxGeometry relative="1" as="geometry" />
        </mxCell>
        <mxCell id="LDq6p9TTaETav7FcXZGg-3" value="查询TEST_VERSION" style="rounded=1;whiteSpace=wrap;html=1;fillColor=none;" parent="1" vertex="1">
          <mxGeometry x="120" y="308" width="140" height="50" as="geometry" />
        </mxCell>
        <mxCell id="LDq6p9TTaETav7FcXZGg-12" value="是" style="text;html=1;align=center;verticalAlign=middle;whiteSpace=wrap;rounded=0;" parent="1" vertex="1">
          <mxGeometry x="150" y="260" width="60" height="30" as="geometry" />
        </mxCell>
        <mxCell id="LDq6p9TTaETav7FcXZGg-13" value="否" style="text;html=1;align=center;verticalAlign=middle;whiteSpace=wrap;rounded=0;" parent="1" vertex="1">
          <mxGeometry x="250" y="190" width="60" height="30" as="geometry" />
        </mxCell>
        <mxCell id="dQK-oS-ozdkQvW9abXsG-2" style="edgeStyle=orthogonalEdgeStyle;rounded=0;orthogonalLoop=1;jettySize=auto;html=1;exitX=0.5;exitY=1;exitDx=0;exitDy=0;entryX=0.5;entryY=0;entryDx=0;entryDy=0;" edge="1" parent="1" source="dQK-oS-ozdkQvW9abXsG-1" target="LDq6p9TTaETav7FcXZGg-3">
          <mxGeometry relative="1" as="geometry" />
        </mxCell>
        <mxCell id="dQK-oS-ozdkQvW9abXsG-6" style="edgeStyle=orthogonalEdgeStyle;rounded=0;orthogonalLoop=1;jettySize=auto;html=1;exitX=1;exitY=0.5;exitDx=0;exitDy=0;entryX=0.5;entryY=0;entryDx=0;entryDy=0;" edge="1" parent="1" source="dQK-oS-ozdkQvW9abXsG-1" target="dQK-oS-ozdkQvW9abXsG-3">
          <mxGeometry relative="1" as="geometry" />
        </mxCell>
        <mxCell id="dQK-oS-ozdkQvW9abXsG-1" value="buyerAliId是否测试" style="rhombus;whiteSpace=wrap;html=1;fillColor=none;" vertex="1" parent="1">
          <mxGeometry x="112.5" y="190" width="155" height="70" as="geometry" />
        </mxCell>
        <mxCell id="dQK-oS-ozdkQvW9abXsG-3" value="查询NORMAL_VERSION" style="rounded=1;whiteSpace=wrap;html=1;fillColor=none;" vertex="1" parent="1">
          <mxGeometry x="300" y="308" width="140" height="50" as="geometry" />
        </mxCell>
        <mxCell id="dQK-oS-ozdkQvW9abXsG-4" value="结束" style="ellipse;whiteSpace=wrap;html=1;fillColor=none;" vertex="1" parent="1">
          <mxGeometry x="130" y="400" width="120" height="80" as="geometry" />
        </mxCell>
      </root>
    </mxGraphModel>
  </diagram>
</mxfile>
